<svg width="553" height="233" viewBox="0 0 553 233" fill="none" xmlns="http://www.w3.org/2000/svg">
<path d="M287.748 13.6215C287.748 7.18874 282.487 1.97176 275.999 1.97176H275.605C269.118 1.97176 263.856 7.18874 263.856 13.6215C264.082 2.24827 254.592 -0.427314 244.808 0.052501V46.497C244.808 54.7799 252.353 61.5827 261.572 61.5827C267.547 61.5827 272.813 58.7241 275.786 54.4627L275.802 54.4017L275.819 54.4627C278.788 58.7282 284.057 61.5827 290.032 61.5827C299.255 61.5827 306.797 54.7758 306.797 46.497V0.052501C297.012 -0.423248 287.527 2.24827 287.748 13.6215" fill="#D9545E"/>
<path d="M275.704 105.413C275.704 105.445 275.704 105.478 275.704 105.51C275.737 105.51 275.769 105.51 275.802 105.51C307.728 105.51 333.605 79.8483 333.605 48.1967C333.605 48.1642 333.605 48.1317 333.605 48.0991C333.572 48.0991 333.539 48.0991 333.506 48.0991C301.581 48.0991 275.704 73.7611 275.704 105.413V105.413Z" fill="#9BC76E"/>
<path d="M218 48.0991C218 48.1317 218 48.1642 218 48.1967C218 79.8157 243.828 105.457 275.704 105.51C275.704 105.478 275.704 105.445 275.704 105.413C275.704 73.7896 249.88 48.152 218 48.0991Z" fill="#03494A"/>
<path d="M226.442 143.897C214.184 143.897 204.248 153.749 204.248 165.904C204.248 178.058 214.184 187.91 226.442 187.91C238.7 187.91 248.636 178.058 248.636 165.904C248.636 153.749 238.7 143.897 226.442 143.897ZM226.442 182.379C217.266 182.379 209.826 175.002 209.826 165.904C209.826 156.806 217.266 149.429 226.442 149.429C235.617 149.429 243.057 156.806 243.057 165.904C243.057 175.002 235.617 182.379 226.442 182.379Z" fill="white"/>
<path d="M269.363 133.979C262.764 133.979 257.4 139.302 257.4 145.84V147.304V157.014H251.544V162.257H257.4V186.65C257.4 192.648 253.678 194.165 249.423 193.965V199.239C257.467 200.162 262.983 195.482 262.983 186.85V162.257H272.186V157.014H262.983V146.834V145.845C262.983 142.358 265.846 139.519 269.363 139.519C272.879 139.519 275.742 142.358 275.742 145.845V145.924H281.325V145.845C281.325 139.302 275.957 133.983 269.363 133.983V133.979Z" fill="white"/>
<path d="M136.551 132.848H130.973V186.597H136.551V132.848Z" fill="white"/>
<path d="M82.16 143.897C69.902 143.897 59.9658 153.749 59.9658 165.904C59.9658 178.058 69.902 187.91 82.16 187.91C94.4179 187.91 104.354 178.058 104.354 165.904C104.354 153.749 94.4179 143.897 82.16 143.897ZM82.16 182.379C72.9844 182.379 65.5445 175.002 65.5445 165.904C65.5445 156.806 72.9844 149.429 82.16 149.429C91.3356 149.429 98.7754 156.806 98.7754 165.904C98.7754 175.002 91.3356 182.379 82.16 182.379Z" fill="white"/>
<path d="M180.662 151.323C176.596 146.772 170.659 143.897 164.047 143.897C151.789 143.897 141.853 153.749 141.853 165.904C141.853 178.058 151.789 187.91 164.047 187.91C176.305 187.91 185.413 178.848 186.183 167.385L186.241 132.852H180.662V151.323V151.323ZM164.047 182.379C154.871 182.379 147.431 175.002 147.431 165.904C147.431 156.806 154.871 149.429 164.047 149.429C173.223 149.429 180.662 156.806 180.662 165.904C180.662 175.002 173.223 182.379 164.047 182.379Z" fill="white"/>
<path d="M107.718 161.056V186.597H113.31V161.779V161.056C113.31 154.699 118.531 149.522 124.942 149.522H125.667V143.973H124.942C115.444 143.973 107.714 151.634 107.714 161.056H107.718Z" fill="white"/>
<path d="M533.648 145.175C522.83 145.175 514.983 152.96 514.983 163.681V186.597H520.562V163.681C520.562 155.923 525.819 150.706 533.648 150.706C541.477 150.706 546.662 155.919 546.662 163.681V186.486H552.24V163.681C552.24 152.787 544.595 145.175 533.648 145.175V145.175Z" fill="white"/>
<path d="M447.421 143.423C441.789 143.423 437.109 145.902 434.304 149.903C431.544 145.871 426.882 143.423 421.152 143.423C411.909 143.423 405.203 150.072 405.203 159.237V186.597H410.781V159.237C410.781 153.084 414.951 148.95 421.156 148.95C427.361 148.95 431.472 153.084 431.472 159.237V186.597H437.056V159.237C437.056 153.084 441.225 148.95 447.43 148.95C453.635 148.95 457.747 153.084 457.747 159.237V186.597H463.325V159.237C463.325 149.926 456.789 143.423 447.435 143.423H447.421Z" fill="white"/>
<path d="M489.058 143.88C476.823 143.88 466.864 153.758 466.864 165.899C466.864 178.04 476.823 187.906 489.058 187.906C497.478 187.906 505.034 183.19 508.801 175.827H502.278C499.187 179.881 494.351 182.374 489.058 182.374C480.849 182.374 474.009 176.439 472.68 168.667H511.252V165.899C511.252 153.758 501.294 143.88 489.058 143.88V143.88ZM472.68 163.136C474.009 155.355 480.849 149.411 489.058 149.411C497.267 149.411 504.108 155.355 505.436 163.136H472.68V163.136Z" fill="white"/>
<path d="M379.6 143.897C367.342 143.897 357.406 153.749 357.406 165.904C357.406 178.058 367.342 187.91 379.6 187.91C391.858 187.91 401.794 178.058 401.794 165.904C401.794 153.749 391.858 143.897 379.6 143.897ZM379.6 182.379C370.424 182.379 362.984 175.002 362.984 165.904C362.984 156.806 370.424 149.429 379.6 149.429C388.775 149.429 396.215 156.806 396.215 165.904C396.215 175.002 388.775 182.379 379.6 182.379Z" fill="white"/>
<path d="M39.2032 148.165C38.6977 148.653 38.2548 149.185 37.8522 149.744C35.4542 146.745 31.6695 144.882 27.4597 145.162C23.9165 145.397 20.852 147.198 18.803 149.824C18.387 149.234 17.9217 148.671 17.3894 148.16C14.1817 145.073 8.9877 143.622 2.36212 143.933L0 144.048V172.842C0 181.15 7.39506 187.906 16.4857 187.906C20.9907 187.906 25.2228 186.229 28.3008 183.319C31.3787 186.234 35.6108 187.906 40.1159 187.906C49.2065 187.906 56.6015 181.15 56.6015 172.842V144.053L54.2394 143.937C47.6183 143.618 42.4109 145.077 39.2032 148.165V148.165ZM51.6357 172.837C51.6357 178.426 46.4685 182.973 40.1203 182.973C36.1343 182.973 32.4747 181.168 30.3408 178.143L28.8868 176.084C28.605 175.685 28.0055 175.685 27.7236 176.084L26.2697 178.143C24.1312 181.168 20.4762 182.973 16.4857 182.973C10.133 182.973 4.97031 178.426 4.97031 172.837V148.835C8.97876 148.959 12.1104 149.948 13.9312 151.7C15.4343 153.146 16.1412 155.151 16.1009 157.826V171.032C18.8433 171.032 21.0712 168.827 21.0712 166.104V157.258C21.0712 153.297 24.3102 150.09 28.3008 150.09C32.2958 150.09 35.5303 153.302 35.5303 157.258V166.104C35.5303 168.823 37.7537 171.032 40.5006 171.032V157.826C40.4559 155.151 41.1672 153.151 42.6703 151.7C44.4912 149.948 47.6272 148.954 51.6402 148.83V172.837H51.6357Z" fill="white"/>
<path d="M336.594 148.165C336.088 148.653 335.645 149.185 335.243 149.744C332.845 146.745 329.06 144.882 324.85 145.162C321.307 145.397 318.243 147.198 316.194 149.824C315.778 149.234 315.312 148.671 314.78 148.16C311.572 145.073 306.378 143.622 299.753 143.933L297.391 144.048V172.842C297.391 181.15 304.786 187.906 313.876 187.906C318.381 187.906 322.613 186.229 325.691 183.319C328.769 186.234 333.001 187.906 337.506 187.906C346.597 187.906 353.992 181.15 353.992 172.842V144.053L351.63 143.937C345.009 143.618 339.801 145.077 336.594 148.165V148.165ZM349.026 172.837C349.026 178.426 343.859 182.973 337.511 182.973C333.525 182.973 329.865 181.168 327.731 178.143L326.277 176.084C325.996 175.685 325.396 175.685 325.114 176.084L323.66 178.143C321.522 181.168 317.867 182.973 313.876 182.973C307.524 182.973 302.361 178.426 302.361 172.837V148.835C306.369 148.959 309.501 149.948 311.322 151.7C312.825 153.146 313.532 155.151 313.492 157.826V171.032C316.234 171.032 318.462 168.827 318.462 166.104V157.258C318.462 153.297 321.701 150.09 325.691 150.09C329.686 150.09 332.921 153.302 332.921 157.258V166.104C332.921 168.823 335.144 171.032 337.891 171.032V157.826C337.846 155.151 338.558 153.151 340.061 151.7C341.882 149.948 345.018 148.954 349.031 148.83V172.837H349.026Z" fill="white"/>
<path d="M152.348 217.081V219.938H146.237V223.531H152.174V226.387H146.237V232.229H143.227V217.076H152.353L152.348 217.081Z" fill="white"/>
<path d="M178.323 230.26C176.779 231.777 174.905 232.531 172.69 232.531C170.476 232.531 168.601 231.773 167.058 230.26C165.528 228.716 164.767 226.849 164.767 224.653C164.767 222.457 165.532 220.585 167.058 219.068C168.601 217.538 170.476 216.775 172.69 216.775C174.905 216.775 176.779 217.538 178.323 219.068C179.866 220.585 180.636 222.444 180.636 224.653C180.636 226.862 179.866 228.73 178.323 230.26V230.26ZM169.179 228.224C170.109 229.147 171.281 229.608 172.695 229.608C174.109 229.608 175.276 229.147 176.211 228.224C177.146 227.301 177.629 226.095 177.629 224.653C177.629 223.211 177.155 222.018 176.211 221.082C175.267 220.146 174.095 219.676 172.695 219.676C171.295 219.676 170.127 220.146 169.179 221.082C168.23 222.018 167.76 223.211 167.76 224.653C167.76 226.095 168.235 227.288 169.179 228.224Z" fill="white"/>
<path d="M199.255 232.535C197.551 232.535 196.155 232.061 195.064 231.107C193.972 230.153 193.426 228.876 193.426 227.274V217.081H196.415V227.039C196.415 227.847 196.652 228.477 197.126 228.934C197.6 229.39 198.307 229.617 199.255 229.617C200.204 229.617 200.911 229.39 201.385 228.934C201.859 228.481 202.096 227.847 202.096 227.039V217.081H205.107V227.274C205.107 228.876 204.561 230.153 203.47 231.107C202.378 232.061 200.973 232.535 199.255 232.535V232.535Z" fill="white"/>
<path d="M227.57 226.321V217.081H230.58V232.234H228.29L221.74 222.972V232.234H218.729V217.081H221.02L227.57 226.321Z" fill="white"/>
<path d="M244.333 217.081H250.399C252.493 217.081 254.242 217.808 255.638 219.268C257.047 220.709 257.754 222.506 257.754 224.657C257.754 226.809 257.047 228.605 255.638 230.047C254.242 231.506 252.493 232.234 250.399 232.234H244.333V217.081V217.081ZM247.343 229.373H250.399C251.723 229.373 252.801 228.938 253.629 228.073C254.457 227.177 254.873 226.037 254.873 224.653C254.873 223.269 254.457 222.12 253.629 221.255C252.801 220.377 251.723 219.933 250.399 219.933H247.343V229.368V229.373Z" fill="white"/>
<path d="M283.361 232.234H280.087L279.169 229.506H273.081L272.164 232.234H268.911L274.257 217.081H277.988L283.357 232.234H283.361ZM276.136 220.523L274.043 226.711H278.234L276.141 220.523H276.136Z" fill="white"/>
<path d="M293.512 217.081H304.755V219.938H300.63V232.229H297.619V219.938H293.517V217.081H293.512Z" fill="white"/>
<path d="M317.348 232.234V217.081H320.359V232.234H317.348Z" fill="white"/>
<path d="M346.973 230.26C345.43 231.777 343.555 232.531 341.341 232.531C339.126 232.531 337.252 231.773 335.708 230.26C334.178 228.716 333.418 226.849 333.418 224.653C333.418 222.457 334.183 220.585 335.708 219.068C337.252 217.538 339.126 216.775 341.341 216.775C343.555 216.775 345.43 217.538 346.973 219.068C348.517 220.585 349.286 222.444 349.286 224.653C349.286 226.862 348.517 228.73 346.973 230.26V230.26ZM337.829 228.224C338.759 229.147 339.932 229.608 341.345 229.608C342.759 229.608 343.927 229.147 344.862 228.224C345.797 227.301 346.28 226.095 346.28 224.653C346.28 223.211 345.806 222.018 344.862 221.082C343.918 220.146 342.746 219.676 341.345 219.676C339.945 219.676 338.777 220.146 337.829 221.082C336.881 222.018 336.411 223.211 336.411 224.653C336.411 226.095 336.885 227.288 337.829 228.224Z" fill="white"/>
<path d="M371.158 226.321V217.081H374.169V232.234H371.878L365.329 222.972V232.234H362.318V217.081H364.609L371.158 226.321Z" fill="white"/>
</svg>
