<svg xmlns="http://www.w3.org/2000/svg" viewBox="0 0 1800 130.38">
  <g id="Calque_2" data-name="Calque 2">
    <g id="Background_Color" data-name="Background Color">
      <g>
        <g>
          <g>
            <path d="M29,9.27h0a7.93,7.93,0,0,0-7.93-7.93h-.27a7.93,7.93,0,0,0-7.93,7.93h0C13,1.53,6.6-.29,0,0V31.66c0,5.63,5.09,10.27,11.32,10.27h0a11.65,11.65,0,0,0,9.59-4.85v0a11.66,11.66,0,0,0,9.6,4.85h0c6.22,0,11.32-4.64,11.32-10.27V0C35.24-.29,28.84,1.53,29,9.27Z" fill="#00a5b7"/>
            <path d="M112.71,9.27h0a7.93,7.93,0,0,0-7.93-7.93h-.27a7.93,7.93,0,0,0-7.93,7.93h0C96.73,1.53,90.33-.29,83.72,0V31.66c0,5.63,5.09,10.27,11.32,10.27h0a11.63,11.63,0,0,0,9.59-4.85v0l0,0a11.63,11.63,0,0,0,9.59,4.85h0c6.22,0,11.32-4.64,11.32-10.27V0C119-.29,112.56,1.53,112.71,9.27Z" fill="#672f80"/>
            <circle cx="62.78" cy="20.98" r="20.94" fill="#a5de80"/>
          </g>
          <g>
            <path d="M196.43,9.27h0a7.93,7.93,0,0,0-7.93-7.93h-.27a7.93,7.93,0,0,0-7.93,7.93h0c.15-7.74-6.25-9.56-12.86-9.23V31.66c0,5.63,5.1,10.27,11.32,10.27h0a11.63,11.63,0,0,0,9.59-4.85l0,0v0A11.63,11.63,0,0,0,198,41.93h0c6.23,0,11.32-4.64,11.32-10.27V0C202.68-.29,196.28,1.53,196.43,9.27Z" fill="#a5de80"/>
            <circle cx="146.5" cy="20.98" r="20.94" fill="#d9535e"/>
          </g>
          <circle cx="230.23" cy="20.98" r="20.94" fill="#76b6db"/>
          <g>
            <path d="M280.15,9.27h0a7.93,7.93,0,0,0-7.93-7.93H272A7.93,7.93,0,0,0,264,9.27h0c.15-7.74-6.25-9.56-12.85-9.23V31.66c0,5.63,5.09,10.27,11.31,10.27h0a11.66,11.66,0,0,0,9.6-4.85v0a11.65,11.65,0,0,0,9.59,4.85h0c6.23,0,11.32-4.64,11.32-10.27V0C286.41-.29,280,1.53,280.15,9.27Z" fill="#a5de80"/>
            <circle cx="313.95" cy="20.98" r="20.94" fill="#672f80"/>
          </g>
          <g>
            <path d="M29,97.72h0a7.93,7.93,0,0,0-7.93-7.93h-.27a7.93,7.93,0,0,0-7.93,7.93h0C13,90,6.6,88.16,0,88.48V120.1c0,5.64,5.09,10.28,11.32,10.28h0a11.65,11.65,0,0,0,9.59-4.85v0a11.66,11.66,0,0,0,9.6,4.85h0c6.22,0,11.32-4.64,11.32-10.28V88.48C35.24,88.16,28.84,90,29,97.72Z" fill="#a5de80"/>
            <path d="M112.71,97.72h0a7.93,7.93,0,0,0-7.93-7.93h-.27a7.93,7.93,0,0,0-7.93,7.93h0c.15-7.74-6.25-9.56-12.86-9.24V120.1c0,5.64,5.09,10.28,11.32,10.28h0a11.63,11.63,0,0,0,9.59-4.85v0l0,0a11.63,11.63,0,0,0,9.59,4.85h0c6.22,0,11.32-4.64,11.32-10.28V88.48C119,88.16,112.56,90,112.71,97.72Z" fill="#7a5dd1"/>
            <circle cx="62.78" cy="109.42" r="20.94" fill="#00a5b7"/>
          </g>
          <g>
            <path d="M196.43,97.72h0a7.93,7.93,0,0,0-7.93-7.93h-.27a7.93,7.93,0,0,0-7.93,7.93h0c.15-7.74-6.25-9.56-12.86-9.24V120.1c0,5.64,5.1,10.28,11.32,10.28h0a11.63,11.63,0,0,0,9.59-4.85l0,0v0a11.63,11.63,0,0,0,9.59,4.85h0c6.23,0,11.32-4.64,11.32-10.28V88.48C202.68,88.16,196.28,90,196.43,97.72Z" fill="#7a5dd1"/>
            <circle cx="146.5" cy="109.42" r="20.94" fill="#a5de80"/>
          </g>
          <circle cx="230.23" cy="109.42" r="20.94" fill="#d9535e"/>
          <g>
            <path d="M280.15,97.72h0a7.93,7.93,0,0,0-7.93-7.93H272A7.93,7.93,0,0,0,264,97.72h0c.15-7.74-6.25-9.56-12.85-9.24V120.1c0,5.64,5.09,10.28,11.31,10.28h0a11.66,11.66,0,0,0,9.6-4.85v0a11.65,11.65,0,0,0,9.59,4.85h0c6.23,0,11.32-4.64,11.32-10.28V88.48C286.41,88.16,280,90,280.15,97.72Z" fill="#00a5b7"/>
            <circle cx="313.95" cy="109.42" r="20.94" fill="#a5de80"/>
          </g>
          <g>
            <path d="M29,53.5h0a7.93,7.93,0,0,0-7.93-7.93h-.27a7.93,7.93,0,0,0-7.93,7.93h0C13,45.75,6.6,43.94,0,44.26V75.88c0,5.64,5.09,10.27,11.32,10.27h0a11.62,11.62,0,0,0,9.59-4.85v0a11.64,11.64,0,0,0,9.6,4.85h0c6.22,0,11.32-4.63,11.32-10.27V44.26C35.24,43.94,28.84,45.75,29,53.5Z" fill="#7a5dd1"/>
            <path d="M112.71,53.5h0a7.93,7.93,0,0,0-7.93-7.93h-.27a7.93,7.93,0,0,0-7.93,7.93h0c.15-7.75-6.25-9.56-12.86-9.24V75.88c0,5.64,5.09,10.27,11.32,10.27h0a11.61,11.61,0,0,0,9.59-4.85v0l0,0a11.61,11.61,0,0,0,9.59,4.85h0c6.22,0,11.32-4.63,11.32-10.27V44.26C119,43.94,112.56,45.75,112.71,53.5Z" fill="#76b6db"/>
            <circle cx="62.78" cy="65.2" r="20.94" fill="#d9535e"/>
          </g>
          <g>
            <path d="M196.43,53.5h0a7.93,7.93,0,0,0-7.93-7.93h-.27a7.93,7.93,0,0,0-7.93,7.93h0c.15-7.75-6.25-9.56-12.86-9.24V75.88c0,5.64,5.1,10.27,11.32,10.27h0a11.61,11.61,0,0,0,9.59-4.85l0,0v0A11.61,11.61,0,0,0,198,86.15h0c6.23,0,11.32-4.63,11.32-10.27V44.26C202.68,43.94,196.28,45.75,196.43,53.5Z" fill="#d9535e"/>
            <circle cx="146.5" cy="65.2" r="20.94" fill="#00a5b7"/>
          </g>
          <circle cx="230.23" cy="65.2" r="20.94" fill="#a5de80"/>
          <g>
            <path d="M280.15,53.5h0a7.93,7.93,0,0,0-7.93-7.93H272A7.93,7.93,0,0,0,264,53.5h0c.15-7.75-6.25-9.56-12.85-9.24V75.88c0,5.64,5.09,10.27,11.31,10.27h0a11.64,11.64,0,0,0,9.6-4.85v0a11.62,11.62,0,0,0,9.59,4.85h0c6.23,0,11.32-4.63,11.32-10.27V44.26C286.41,43.94,280,45.75,280.15,53.5Z" fill="#672f80"/>
            <circle cx="313.95" cy="65.2" r="20.94" fill="#d9535e"/>
          </g>
        </g>
        <g>
          <path d="M363.87,9.27h0a7.93,7.93,0,0,0-7.93-7.93h-.26a7.93,7.93,0,0,0-7.93,7.93h0c.15-7.74-6.26-9.56-12.86-9.23V31.66c0,5.63,5.09,10.27,11.31,10.27h0a11.65,11.65,0,0,0,9.6-4.85v0a11.65,11.65,0,0,0,9.59,4.85h0c6.23,0,11.32-4.64,11.32-10.27V0C370.13-.29,363.72,1.53,363.87,9.27Z" fill="#00a5b7"/>
          <path d="M447.59,9.27h0a7.93,7.93,0,0,0-7.93-7.93h-.26a7.93,7.93,0,0,0-7.93,7.93h0c.15-7.74-6.26-9.56-12.86-9.23V31.66c0,5.63,5.09,10.27,11.31,10.27h0a11.65,11.65,0,0,0,9.6-4.85v0a11.65,11.65,0,0,0,9.6,4.85h0c6.22,0,11.31-4.64,11.31-10.27V0C453.85-.29,447.44,1.53,447.59,9.27Z" fill="#672f80"/>
          <circle cx="397.67" cy="20.98" r="20.94" fill="#a5de80"/>
        </g>
        <g>
          <path d="M531.32,9.27h0a7.93,7.93,0,0,0-7.93-7.93h-.27a7.93,7.93,0,0,0-7.93,7.93h0c.15-7.74-6.26-9.56-12.86-9.23V31.66c0,5.63,5.09,10.27,11.32,10.27h0a11.65,11.65,0,0,0,9.59-4.85v0a11.66,11.66,0,0,0,9.6,4.85h0c6.22,0,11.31-4.64,11.31-10.27V0C537.57-.29,531.17,1.53,531.32,9.27Z" fill="#a5de80"/>
          <circle cx="481.39" cy="20.98" r="20.94" fill="#d9535e"/>
        </g>
        <circle cx="565.11" cy="20.98" r="20.94" fill="#8c65d3"/>
        <g>
          <path d="M363.87,97.72h0a7.93,7.93,0,0,0-7.93-7.93h-.26a7.93,7.93,0,0,0-7.93,7.93h0c.15-7.74-6.26-9.56-12.86-9.24V120.1c0,5.64,5.09,10.28,11.31,10.28h0a11.65,11.65,0,0,0,9.6-4.85v0a11.65,11.65,0,0,0,9.59,4.85h0c6.23,0,11.32-4.64,11.32-10.28V88.48C370.13,88.16,363.72,90,363.87,97.72Z" fill="#d9535e"/>
          <path d="M447.59,97.72h0a7.93,7.93,0,0,0-7.93-7.93h-.26a7.93,7.93,0,0,0-7.93,7.93h0c.15-7.74-6.26-9.56-12.86-9.24V120.1c0,5.64,5.09,10.28,11.31,10.28h0a11.65,11.65,0,0,0,9.6-4.85v0a11.65,11.65,0,0,0,9.6,4.85h0c6.22,0,11.31-4.64,11.31-10.28V88.48C453.85,88.16,447.44,90,447.59,97.72Z" fill="#7a5dd1"/>
          <circle cx="397.67" cy="109.42" r="20.94" fill="#00a5b7"/>
        </g>
        <g>
          <path d="M531.32,97.72h0a7.93,7.93,0,0,0-7.93-7.93h-.27a7.93,7.93,0,0,0-7.93,7.93h0c.15-7.74-6.26-9.56-12.86-9.24V120.1c0,5.64,5.09,10.28,11.32,10.28h0a11.65,11.65,0,0,0,9.59-4.85v0a11.66,11.66,0,0,0,9.6,4.85h0c6.22,0,11.31-4.64,11.31-10.28V88.48C537.57,88.16,531.17,90,531.32,97.72Z" fill="#7a5dd1"/>
          <circle cx="481.39" cy="109.42" r="20.94" fill="#a5de80"/>
        </g>
        <circle cx="565.11" cy="109.42" r="20.94" fill="#d9535e"/>
        <g>
          <path d="M363.87,53.5h0a7.93,7.93,0,0,0-7.93-7.93h-.26a7.93,7.93,0,0,0-7.93,7.93h0c.15-7.75-6.26-9.56-12.86-9.24V75.88c0,5.64,5.09,10.27,11.31,10.27h0a11.62,11.62,0,0,0,9.6-4.85v0a11.62,11.62,0,0,0,9.59,4.85h0c6.23,0,11.32-4.63,11.32-10.27V44.26C370.13,43.94,363.72,45.75,363.87,53.5Z" fill="#7a5dd1"/>
          <path d="M447.59,53.5h0a7.93,7.93,0,0,0-7.93-7.93h-.26a7.93,7.93,0,0,0-7.93,7.93h0c.15-7.75-6.26-9.56-12.86-9.24V75.88c0,5.64,5.09,10.27,11.31,10.27h0a11.62,11.62,0,0,0,9.6-4.85v0a11.62,11.62,0,0,0,9.6,4.85h0c6.22,0,11.31-4.63,11.31-10.27V44.26C453.85,43.94,447.44,45.75,447.59,53.5Z" fill="#76b6db"/>
          <circle cx="397.67" cy="65.2" r="20.94" fill="#d9535e"/>
        </g>
        <g>
          <path d="M531.32,53.5h0a7.93,7.93,0,0,0-7.93-7.93h-.27a7.93,7.93,0,0,0-7.93,7.93h0c.15-7.75-6.26-9.56-12.86-9.24V75.88c0,5.64,5.09,10.27,11.32,10.27h0a11.62,11.62,0,0,0,9.59-4.85v0a11.64,11.64,0,0,0,9.6,4.85h0c6.22,0,11.31-4.63,11.31-10.27V44.26C537.57,43.94,531.17,45.75,531.32,53.5Z" fill="#d9535e"/>
          <circle cx="481.39" cy="65.2" r="20.94" fill="#00a5b7"/>
        </g>
        <circle cx="565.11" cy="65.2" r="20.94" fill="#a5de80"/>
        <g>
          <path d="M615,9.27h0a7.93,7.93,0,0,0-7.93-7.93h-.27a7.93,7.93,0,0,0-7.93,7.93h0c.15-7.74-6.25-9.56-12.86-9.23V31.66c0,5.63,5.09,10.27,11.32,10.27h0A11.63,11.63,0,0,0,607,37.08v0l0,0a11.63,11.63,0,0,0,9.59,4.85h0c6.22,0,11.32-4.64,11.32-10.27V0C621.29-.29,614.89,1.53,615,9.27Z" fill="#00a5b7"/>
          <path d="M698.76,9.27h0a7.93,7.93,0,0,0-7.93-7.93h-.27a7.93,7.93,0,0,0-7.93,7.93h0c.15-7.74-6.25-9.56-12.86-9.23V31.66c0,5.63,5.1,10.27,11.32,10.27h0a11.63,11.63,0,0,0,9.59-4.85l0,0v0a11.63,11.63,0,0,0,9.59,4.85h0c6.23,0,11.32-4.64,11.32-10.27V0C705-.29,698.61,1.53,698.76,9.27Z" fill="#672f80"/>
          <circle cx="648.83" cy="20.98" r="20.94" fill="#a5de80"/>
        </g>
        <g>
          <path d="M782.48,9.27h0a7.93,7.93,0,0,0-7.93-7.93h-.27a7.93,7.93,0,0,0-7.93,7.93h0C766.5,1.53,760.1-.29,753.49,0V31.66c0,5.63,5.1,10.27,11.32,10.27h0a11.66,11.66,0,0,0,9.6-4.85v0A11.65,11.65,0,0,0,784,41.93h0c6.23,0,11.32-4.64,11.32-10.27V0C788.74-.29,782.33,1.53,782.48,9.27Z" fill="#a5de80"/>
          <circle cx="732.56" cy="20.98" r="20.94" fill="#d9535e"/>
        </g>
        <circle cx="816.28" cy="20.98" r="20.94" fill="#76b6db"/>
        <g>
          <path d="M866.2,9.27h0a7.93,7.93,0,0,0-7.93-7.93H858a7.93,7.93,0,0,0-7.93,7.93h0c.15-7.74-6.26-9.56-12.86-9.23V31.66c0,5.63,5.09,10.27,11.31,10.27h0a11.65,11.65,0,0,0,9.6-4.85v0a11.65,11.65,0,0,0,9.59,4.85h0c6.23,0,11.32-4.64,11.32-10.27V0C872.46-.29,866.05,1.53,866.2,9.27Z" fill="#a5de80"/>
          <circle cx="900" cy="20.98" r="20.94" fill="#672f80"/>
        </g>
        <g>
          <path d="M615,97.72h0a7.93,7.93,0,0,0-7.93-7.93h-.27a7.93,7.93,0,0,0-7.93,7.93h0c.15-7.74-6.25-9.56-12.86-9.24V120.1c0,5.64,5.09,10.28,11.32,10.28h0a11.63,11.63,0,0,0,9.59-4.85v0l0,0a11.63,11.63,0,0,0,9.59,4.85h0c6.22,0,11.32-4.64,11.32-10.28V88.48C621.29,88.16,614.89,90,615,97.72Z" fill="#a5de80"/>
          <path d="M698.76,97.72h0a7.93,7.93,0,0,0-7.93-7.93h-.27a7.93,7.93,0,0,0-7.93,7.93h0c.15-7.74-6.25-9.56-12.86-9.24V120.1c0,5.64,5.1,10.28,11.32,10.28h0a11.63,11.63,0,0,0,9.59-4.85l0,0v0a11.63,11.63,0,0,0,9.59,4.85h0c6.23,0,11.32-4.64,11.32-10.28V88.48C705,88.16,698.61,90,698.76,97.72Z" fill="#7a5dd1"/>
          <circle cx="648.83" cy="109.42" r="20.94" fill="#00a5b7"/>
        </g>
        <g>
          <path d="M782.48,97.72h0a7.93,7.93,0,0,0-7.93-7.93h-.27a7.93,7.93,0,0,0-7.93,7.93h0c.15-7.74-6.25-9.56-12.86-9.24V120.1c0,5.64,5.1,10.28,11.32,10.28h0a11.66,11.66,0,0,0,9.6-4.85v0a11.65,11.65,0,0,0,9.59,4.85h0c6.23,0,11.32-4.64,11.32-10.28V88.48C788.74,88.16,782.33,90,782.48,97.72Z" fill="#7a5dd1"/>
          <circle cx="732.56" cy="109.42" r="20.94" fill="#a5de80"/>
        </g>
        <circle cx="816.28" cy="109.42" r="20.94" fill="#d9535e"/>
        <g>
          <path d="M866.2,97.72h0a7.93,7.93,0,0,0-7.93-7.93H858a7.93,7.93,0,0,0-7.93,7.93h0c.15-7.74-6.26-9.56-12.86-9.24V120.1c0,5.64,5.09,10.28,11.31,10.28h0a11.65,11.65,0,0,0,9.6-4.85v0a11.65,11.65,0,0,0,9.59,4.85h0c6.23,0,11.32-4.64,11.32-10.28V88.48C872.46,88.16,866.05,90,866.2,97.72Z" fill="#00a5b7"/>
          <circle cx="900" cy="109.42" r="20.94" fill="#a5de80"/>
        </g>
        <g>
          <path d="M615,53.5h0a7.93,7.93,0,0,0-7.93-7.93h-.27a7.93,7.93,0,0,0-7.93,7.93h0c.15-7.75-6.25-9.56-12.86-9.24V75.88c0,5.64,5.09,10.27,11.32,10.27h0A11.61,11.61,0,0,0,607,81.3v0l0,0a11.61,11.61,0,0,0,9.59,4.85h0c6.22,0,11.32-4.63,11.32-10.27V44.26C621.29,43.94,614.89,45.75,615,53.5Z" fill="#7a5dd1"/>
          <path d="M698.76,53.5h0a7.93,7.93,0,0,0-7.93-7.93h-.27a7.93,7.93,0,0,0-7.93,7.93h0c.15-7.75-6.25-9.56-12.86-9.24V75.88c0,5.64,5.1,10.27,11.32,10.27h0a11.61,11.61,0,0,0,9.59-4.85l0,0v0a11.61,11.61,0,0,0,9.59,4.85h0c6.23,0,11.32-4.63,11.32-10.27V44.26C705,43.94,698.61,45.75,698.76,53.5Z" fill="#76b6db"/>
          <circle cx="648.83" cy="65.2" r="20.94" fill="#d9535e"/>
        </g>
        <g>
          <path d="M782.48,53.5h0a7.93,7.93,0,0,0-7.93-7.93h-.27a7.93,7.93,0,0,0-7.93,7.93h0c.15-7.75-6.25-9.56-12.86-9.24V75.88c0,5.64,5.1,10.27,11.32,10.27h0a11.64,11.64,0,0,0,9.6-4.85v0A11.62,11.62,0,0,0,784,86.15h0c6.23,0,11.32-4.63,11.32-10.27V44.26C788.74,43.94,782.33,45.75,782.48,53.5Z" fill="#d9535e"/>
          <circle cx="732.56" cy="65.2" r="20.94" fill="#00a5b7"/>
        </g>
        <circle cx="816.28" cy="65.2" r="20.94" fill="#a5de80"/>
        <g>
          <path d="M866.2,53.5h0a7.93,7.93,0,0,0-7.93-7.93H858a7.93,7.93,0,0,0-7.93,7.93h0c.15-7.75-6.26-9.56-12.86-9.24V75.88c0,5.64,5.09,10.27,11.31,10.27h0a11.62,11.62,0,0,0,9.6-4.85v0a11.62,11.62,0,0,0,9.59,4.85h0c6.23,0,11.32-4.63,11.32-10.27V44.26C872.46,43.94,866.05,45.75,866.2,53.5Z" fill="#672f80"/>
          <circle cx="900" cy="65.2" r="20.94" fill="#d9535e"/>
        </g>
        <g>
          <path d="M949.92,9.27h0A7.93,7.93,0,0,0,942,1.34h-.26a7.93,7.93,0,0,0-7.93,7.93h0C934,1.53,927.54-.29,920.94,0V31.66c0,5.63,5.09,10.27,11.32,10.27h0a11.65,11.65,0,0,0,9.59-4.85v0a11.65,11.65,0,0,0,9.6,4.85h0c6.22,0,11.31-4.64,11.31-10.27V0C956.18-.29,949.77,1.53,949.92,9.27Z" fill="#00a5b7"/>
          <path d="M1033.65,9.27h0a7.94,7.94,0,0,0-7.93-7.93h-.27a7.93,7.93,0,0,0-7.93,7.93h0c.15-7.74-6.26-9.56-12.86-9.23V31.66c0,5.63,5.09,10.27,11.32,10.27h0a11.65,11.65,0,0,0,9.59-4.85v0a11.66,11.66,0,0,0,9.6,4.85h0c6.22,0,11.31-4.64,11.31-10.27V0C1039.9-.29,1033.5,1.53,1033.65,9.27Z" fill="#672f80"/>
          <circle cx="983.72" cy="20.98" r="20.94" fill="#a5de80"/>
        </g>
        <g>
          <path d="M1117.37,9.27h0a7.93,7.93,0,0,0-7.93-7.93h-.27a7.93,7.93,0,0,0-7.93,7.93h0c.15-7.74-6.25-9.56-12.86-9.23V31.66c0,5.63,5.09,10.27,11.32,10.27h0a11.63,11.63,0,0,0,9.59-4.85v0l0,0a11.63,11.63,0,0,0,9.59,4.85h0c6.22,0,11.32-4.64,11.32-10.27V0C1123.62-.29,1117.22,1.53,1117.37,9.27Z" fill="#a5de80"/>
          <circle cx="1067.44" cy="20.98" r="20.94" fill="#d9535e"/>
        </g>
        <circle cx="1151.16" cy="20.98" r="20.94" fill="#8c65d3"/>
        <g>
          <path d="M949.92,97.72h0A7.93,7.93,0,0,0,942,89.79h-.26a7.93,7.93,0,0,0-7.93,7.93h0c.15-7.74-6.26-9.56-12.86-9.24V120.1c0,5.64,5.09,10.28,11.32,10.28h0a11.65,11.65,0,0,0,9.59-4.85v0a11.65,11.65,0,0,0,9.6,4.85h0c6.22,0,11.31-4.64,11.31-10.28V88.48C956.18,88.16,949.77,90,949.92,97.72Z" fill="#d9535e"/>
          <path d="M1033.65,97.72h0a7.94,7.94,0,0,0-7.93-7.93h-.27a7.93,7.93,0,0,0-7.93,7.93h0c.15-7.74-6.26-9.56-12.86-9.24V120.1c0,5.64,5.09,10.28,11.32,10.28h0a11.65,11.65,0,0,0,9.59-4.85v0a11.66,11.66,0,0,0,9.6,4.85h0c6.22,0,11.31-4.64,11.31-10.28V88.48C1039.9,88.16,1033.5,90,1033.65,97.72Z" fill="#7a5dd1"/>
          <circle cx="983.72" cy="109.42" r="20.94" fill="#00a5b7"/>
        </g>
        <g>
          <path d="M1117.37,97.72h0a7.93,7.93,0,0,0-7.93-7.93h-.27a7.93,7.93,0,0,0-7.93,7.93h0c.15-7.74-6.25-9.56-12.86-9.24V120.1c0,5.64,5.09,10.28,11.32,10.28h0a11.63,11.63,0,0,0,9.59-4.85v0l0,0a11.63,11.63,0,0,0,9.59,4.85h0c6.22,0,11.32-4.64,11.32-10.28V88.48C1123.62,88.16,1117.22,90,1117.37,97.72Z" fill="#7a5dd1"/>
          <circle cx="1067.44" cy="109.42" r="20.94" fill="#a5de80"/>
        </g>
        <circle cx="1151.16" cy="109.42" r="20.94" fill="#d9535e"/>
        <g>
          <path d="M949.92,53.5h0A7.93,7.93,0,0,0,942,45.57h-.26a7.93,7.93,0,0,0-7.93,7.93h0c.15-7.75-6.26-9.56-12.86-9.24V75.88c0,5.64,5.09,10.27,11.32,10.27h0a11.62,11.62,0,0,0,9.59-4.85v0a11.62,11.62,0,0,0,9.6,4.85h0c6.22,0,11.31-4.63,11.31-10.27V44.26C956.18,43.94,949.77,45.75,949.92,53.5Z" fill="#7a5dd1"/>
          <path d="M1033.65,53.5h0a7.94,7.94,0,0,0-7.93-7.93h-.27a7.93,7.93,0,0,0-7.93,7.93h0c.15-7.75-6.26-9.56-12.86-9.24V75.88c0,5.64,5.09,10.27,11.32,10.27h0a11.62,11.62,0,0,0,9.59-4.85v0a11.64,11.64,0,0,0,9.6,4.85h0c6.22,0,11.31-4.63,11.31-10.27V44.26C1039.9,43.94,1033.5,45.75,1033.65,53.5Z" fill="#76b6db"/>
          <circle cx="983.72" cy="65.2" r="20.94" fill="#d9535e"/>
        </g>
        <g>
          <path d="M1117.37,53.5h0a7.93,7.93,0,0,0-7.93-7.93h-.27a7.93,7.93,0,0,0-7.93,7.93h0c.15-7.75-6.25-9.56-12.86-9.24V75.88c0,5.64,5.09,10.27,11.32,10.27h0a11.61,11.61,0,0,0,9.59-4.85v0l0,0a11.61,11.61,0,0,0,9.59,4.85h0c6.22,0,11.32-4.63,11.32-10.27V44.26C1123.62,43.94,1117.22,45.75,1117.37,53.5Z" fill="#d9535e"/>
          <circle cx="1067.44" cy="65.2" r="20.94" fill="#00a5b7"/>
        </g>
        <circle cx="1151.16" cy="65.2" r="20.94" fill="#a5de80"/>
        <g>
          <path d="M1201.09,9.27h0a7.93,7.93,0,0,0-7.93-7.93h-.27A7.93,7.93,0,0,0,1185,9.27h0c.15-7.74-6.25-9.56-12.86-9.23V31.66c0,5.63,5.1,10.27,11.32,10.27h0a11.63,11.63,0,0,0,9.59-4.85l0,0v0a11.63,11.63,0,0,0,9.59,4.85h0c6.23,0,11.32-4.64,11.32-10.27V0C1207.34-.29,1200.94,1.53,1201.09,9.27Z" fill="#00a5b7"/>
          <path d="M1284.81,9.27h0a7.93,7.93,0,0,0-7.93-7.93h-.27a7.93,7.93,0,0,0-7.93,7.93h0c.15-7.74-6.25-9.56-12.86-9.23V31.66c0,5.63,5.1,10.27,11.32,10.27h0a11.66,11.66,0,0,0,9.6-4.85v0a11.63,11.63,0,0,0,9.59,4.85h0c6.23,0,11.32-4.64,11.32-10.27V0C1291.07-.29,1284.66,1.53,1284.81,9.27Z" fill="#672f80"/>
          <circle cx="1234.89" cy="20.98" r="20.94" fill="#a5de80"/>
        </g>
        <g>
          <path d="M1368.53,9.27h0a7.93,7.93,0,0,0-7.93-7.93h-.26a7.93,7.93,0,0,0-7.93,7.93h0c.15-7.74-6.26-9.56-12.86-9.23V31.66c0,5.63,5.09,10.27,11.31,10.27h0a11.65,11.65,0,0,0,9.6-4.85v0a11.65,11.65,0,0,0,9.59,4.85h0c6.23,0,11.32-4.64,11.32-10.27V0C1374.79-.29,1368.38,1.53,1368.53,9.27Z" fill="#a5de80"/>
          <circle cx="1318.61" cy="20.98" r="20.94" fill="#d9535e"/>
        </g>
        <circle cx="1402.33" cy="20.98" r="20.94" fill="#76b6db"/>
        <g>
          <path d="M1452.25,9.27h0a7.93,7.93,0,0,0-7.93-7.93h-.26a7.93,7.93,0,0,0-7.93,7.93h0c.15-7.74-6.26-9.56-12.86-9.23V31.66c0,5.63,5.09,10.27,11.32,10.27h0a11.65,11.65,0,0,0,9.59-4.85v0a11.65,11.65,0,0,0,9.6,4.85h0c6.22,0,11.31-4.64,11.31-10.27V0C1458.51-.29,1452.1,1.53,1452.25,9.27Z" fill="#a5de80"/>
          <circle cx="1486.05" cy="20.98" r="20.94" fill="#672f80"/>
        </g>
        <g>
          <path d="M1201.09,97.72h0a7.93,7.93,0,0,0-7.93-7.93h-.27a7.93,7.93,0,0,0-7.93,7.93h0c.15-7.74-6.25-9.56-12.86-9.24V120.1c0,5.64,5.1,10.28,11.32,10.28h0a11.63,11.63,0,0,0,9.59-4.85l0,0v0a11.63,11.63,0,0,0,9.59,4.85h0c6.23,0,11.32-4.64,11.32-10.28V88.48C1207.34,88.16,1200.94,90,1201.09,97.72Z" fill="#a5de80"/>
          <path d="M1284.81,97.72h0a7.93,7.93,0,0,0-7.93-7.93h-.27a7.93,7.93,0,0,0-7.93,7.93h0c.15-7.74-6.25-9.56-12.86-9.24V120.1c0,5.64,5.1,10.28,11.32,10.28h0a11.66,11.66,0,0,0,9.6-4.85v0a11.63,11.63,0,0,0,9.59,4.85h0c6.23,0,11.32-4.64,11.32-10.28V88.48C1291.07,88.16,1284.66,90,1284.81,97.72Z" fill="#7a5dd1"/>
          <circle cx="1234.89" cy="109.42" r="20.94" fill="#00a5b7"/>
        </g>
        <g>
          <path d="M1368.53,97.72h0a7.93,7.93,0,0,0-7.93-7.93h-.26a7.93,7.93,0,0,0-7.93,7.93h0c.15-7.74-6.26-9.56-12.86-9.24V120.1c0,5.64,5.09,10.28,11.31,10.28h0a11.65,11.65,0,0,0,9.6-4.85v0a11.65,11.65,0,0,0,9.59,4.85h0c6.23,0,11.32-4.64,11.32-10.28V88.48C1374.79,88.16,1368.38,90,1368.53,97.72Z" fill="#7a5dd1"/>
          <circle cx="1318.61" cy="109.42" r="20.94" fill="#a5de80"/>
        </g>
        <circle cx="1402.33" cy="109.42" r="20.94" fill="#d9535e"/>
        <g>
          <path d="M1452.25,97.72h0a7.93,7.93,0,0,0-7.93-7.93h-.26a7.93,7.93,0,0,0-7.93,7.93h0c.15-7.74-6.26-9.56-12.86-9.24V120.1c0,5.64,5.09,10.28,11.32,10.28h0a11.65,11.65,0,0,0,9.59-4.85v0a11.65,11.65,0,0,0,9.6,4.85h0c6.22,0,11.31-4.64,11.31-10.28V88.48C1458.51,88.16,1452.1,90,1452.25,97.72Z" fill="#00a5b7"/>
          <circle cx="1486.05" cy="109.42" r="20.94" fill="#a5de80"/>
        </g>
        <g>
          <path d="M1201.09,53.5h0a7.93,7.93,0,0,0-7.93-7.93h-.27A7.93,7.93,0,0,0,1185,53.5h0c.15-7.75-6.25-9.56-12.86-9.24V75.88c0,5.64,5.1,10.27,11.32,10.27h0A11.61,11.61,0,0,0,1193,81.3l0,0v0a11.61,11.61,0,0,0,9.59,4.85h0c6.23,0,11.32-4.63,11.32-10.27V44.26C1207.34,43.94,1200.94,45.75,1201.09,53.5Z" fill="#7a5dd1"/>
          <path d="M1284.81,53.5h0a7.93,7.93,0,0,0-7.93-7.93h-.27a7.93,7.93,0,0,0-7.93,7.93h0c.15-7.75-6.25-9.56-12.86-9.24V75.88c0,5.64,5.1,10.27,11.32,10.27h0a11.64,11.64,0,0,0,9.6-4.85v0a11.61,11.61,0,0,0,9.59,4.85h0c6.23,0,11.32-4.63,11.32-10.27V44.26C1291.07,43.94,1284.66,45.75,1284.81,53.5Z" fill="#76b6db"/>
          <circle cx="1234.89" cy="65.2" r="20.94" fill="#d9535e"/>
        </g>
        <g>
          <path d="M1368.53,53.5h0a7.93,7.93,0,0,0-7.93-7.93h-.26a7.93,7.93,0,0,0-7.93,7.93h0c.15-7.75-6.26-9.56-12.86-9.24V75.88c0,5.64,5.09,10.27,11.31,10.27h0a11.62,11.62,0,0,0,9.6-4.85v0a11.62,11.62,0,0,0,9.59,4.85h0c6.23,0,11.32-4.63,11.32-10.27V44.26C1374.79,43.94,1368.38,45.75,1368.53,53.5Z" fill="#d9535e"/>
          <circle cx="1318.61" cy="65.2" r="20.94" fill="#00a5b7"/>
        </g>
        <circle cx="1402.33" cy="65.2" r="20.94" fill="#a5de80"/>
        <g>
          <path d="M1452.25,53.5h0a7.93,7.93,0,0,0-7.93-7.93h-.26a7.93,7.93,0,0,0-7.93,7.93h0c.15-7.75-6.26-9.56-12.86-9.24V75.88c0,5.64,5.09,10.27,11.32,10.27h0a11.62,11.62,0,0,0,9.59-4.85v0a11.62,11.62,0,0,0,9.6,4.85h0c6.22,0,11.31-4.63,11.31-10.27V44.26C1458.51,43.94,1452.1,45.75,1452.25,53.5Z" fill="#672f80"/>
          <circle cx="1486.05" cy="65.2" r="20.94" fill="#d9535e"/>
        </g>
        <g>
          <path d="M1536,9.27h0a7.93,7.93,0,0,0-7.93-7.93h-.27a7.93,7.93,0,0,0-7.93,7.93h0C1520,1.53,1513.59-.29,1507,0V31.66c0,5.63,5.09,10.27,11.32,10.27h0a11.65,11.65,0,0,0,9.59-4.85v0a11.66,11.66,0,0,0,9.6,4.85h0c6.22,0,11.31-4.64,11.31-10.27V0C1542.23-.29,1535.83,1.53,1536,9.27Z" fill="#00a5b7"/>
          <path d="M1619.7,9.27h0a7.93,7.93,0,0,0-7.93-7.93h-.27a7.93,7.93,0,0,0-7.93,7.93h0c.15-7.74-6.25-9.56-12.86-9.23V31.66c0,5.63,5.09,10.27,11.32,10.27h0a11.63,11.63,0,0,0,9.59-4.85v0l0,0a11.63,11.63,0,0,0,9.59,4.85h0c6.22,0,11.32-4.64,11.32-10.27V0C1626-.29,1619.55,1.53,1619.7,9.27Z" fill="#672f80"/>
          <circle cx="1569.77" cy="20.98" r="20.94" fill="#a5de80"/>
        </g>
        <g>
          <path d="M1703.42,9.27h0a7.93,7.93,0,0,0-7.93-7.93h-.27a7.93,7.93,0,0,0-7.93,7.93h0c.15-7.74-6.25-9.56-12.86-9.23V31.66c0,5.63,5.1,10.27,11.32,10.27h0a11.63,11.63,0,0,0,9.59-4.85l0,0v0a11.63,11.63,0,0,0,9.59,4.85h0c6.23,0,11.32-4.64,11.32-10.27V0C1709.67-.29,1703.27,1.53,1703.42,9.27Z" fill="#a5de80"/>
          <circle cx="1653.49" cy="20.98" r="20.94" fill="#d9535e"/>
        </g>
        <circle cx="1737.22" cy="20.98" r="20.94" fill="#8c65d3"/>
        <path d="M1787.14,9.27h0a7.93,7.93,0,0,0-7.93-7.93h-.27A7.93,7.93,0,0,0,1771,9.27h0c.15-7.74-6.25-9.56-12.86-9.23V31.66c0,5.63,5.1,10.27,11.32,10.27h0a11.66,11.66,0,0,0,9.6-4.85v0a11.65,11.65,0,0,0,9.59,4.85h0c6.23,0,11.32-4.64,11.32-10.27V0C1793.4-.29,1787,1.53,1787.14,9.27Z" fill="#76b6db"/>
        <g>
          <path d="M1536,97.72h0a7.93,7.93,0,0,0-7.93-7.93h-.27a7.93,7.93,0,0,0-7.93,7.93h0c.15-7.74-6.26-9.56-12.86-9.24V120.1c0,5.64,5.09,10.28,11.32,10.28h0a11.65,11.65,0,0,0,9.59-4.85v0a11.66,11.66,0,0,0,9.6,4.85h0c6.22,0,11.31-4.64,11.31-10.28V88.48C1542.23,88.16,1535.83,90,1536,97.72Z" fill="#d9535e"/>
          <path d="M1619.7,97.72h0a7.93,7.93,0,0,0-7.93-7.93h-.27a7.93,7.93,0,0,0-7.93,7.93h0c.15-7.74-6.25-9.56-12.86-9.24V120.1c0,5.64,5.09,10.28,11.32,10.28h0a11.63,11.63,0,0,0,9.59-4.85v0l0,0a11.63,11.63,0,0,0,9.59,4.85h0c6.22,0,11.32-4.64,11.32-10.28V88.48C1626,88.16,1619.55,90,1619.7,97.72Z" fill="#7a5dd1"/>
          <circle cx="1569.77" cy="109.42" r="20.94" fill="#00a5b7"/>
        </g>
        <g>
          <path d="M1703.42,97.72h0a7.93,7.93,0,0,0-7.93-7.93h-.27a7.93,7.93,0,0,0-7.93,7.93h0c.15-7.74-6.25-9.56-12.86-9.24V120.1c0,5.64,5.1,10.28,11.32,10.28h0a11.63,11.63,0,0,0,9.59-4.85l0,0v0a11.63,11.63,0,0,0,9.59,4.85h0c6.23,0,11.32-4.64,11.32-10.28V88.48C1709.67,88.16,1703.27,90,1703.42,97.72Z" fill="#7a5dd1"/>
          <circle cx="1653.49" cy="109.42" r="20.94" fill="#a5de80"/>
        </g>
        <circle cx="1737.22" cy="109.42" r="20.94" fill="#d9535e"/>
        <path d="M1787.14,97.72h0a7.93,7.93,0,0,0-7.93-7.93h-.27a7.93,7.93,0,0,0-7.93,7.93h0c.15-7.74-6.25-9.56-12.86-9.24V120.1c0,5.64,5.1,10.28,11.32,10.28h0a11.66,11.66,0,0,0,9.6-4.85v0a11.65,11.65,0,0,0,9.59,4.85h0c6.23,0,11.32-4.64,11.32-10.28V88.48C1793.4,88.16,1787,90,1787.14,97.72Z" fill="#00a5b7"/>
        <g>
          <path d="M1536,53.5h0a7.93,7.93,0,0,0-7.93-7.93h-.27a7.93,7.93,0,0,0-7.93,7.93h0c.15-7.75-6.26-9.56-12.86-9.24V75.88c0,5.64,5.09,10.27,11.32,10.27h0a11.62,11.62,0,0,0,9.59-4.85v0a11.64,11.64,0,0,0,9.6,4.85h0c6.22,0,11.31-4.63,11.31-10.27V44.26C1542.23,43.94,1535.83,45.75,1536,53.5Z" fill="#7a5dd1"/>
          <path d="M1619.7,53.5h0a7.93,7.93,0,0,0-7.93-7.93h-.27a7.93,7.93,0,0,0-7.93,7.93h0c.15-7.75-6.25-9.56-12.86-9.24V75.88c0,5.64,5.09,10.27,11.32,10.27h0a11.61,11.61,0,0,0,9.59-4.85v0l0,0a11.61,11.61,0,0,0,9.59,4.85h0c6.22,0,11.32-4.63,11.32-10.27V44.26C1626,43.94,1619.55,45.75,1619.7,53.5Z" fill="#76b6db"/>
          <circle cx="1569.77" cy="65.2" r="20.94" fill="#d9535e"/>
        </g>
        <g>
          <path d="M1703.42,53.5h0a7.93,7.93,0,0,0-7.93-7.93h-.27a7.93,7.93,0,0,0-7.93,7.93h0c.15-7.75-6.25-9.56-12.86-9.24V75.88c0,5.64,5.1,10.27,11.32,10.27h0a11.61,11.61,0,0,0,9.59-4.85l0,0v0a11.61,11.61,0,0,0,9.59,4.85h0c6.23,0,11.32-4.63,11.32-10.27V44.26C1709.67,43.94,1703.27,45.75,1703.42,53.5Z" fill="#d9535e"/>
          <circle cx="1653.49" cy="65.2" r="20.94" fill="#00a5b7"/>
        </g>
        <circle cx="1737.22" cy="65.2" r="20.94" fill="#a5de80"/>
        <path d="M1787.14,53.5h0a7.93,7.93,0,0,0-7.93-7.93h-.27A7.93,7.93,0,0,0,1771,53.5h0c.15-7.75-6.25-9.56-12.86-9.24V75.88c0,5.64,5.1,10.27,11.32,10.27h0a11.64,11.64,0,0,0,9.6-4.85v0a11.62,11.62,0,0,0,9.59,4.85h0c6.23,0,11.32-4.63,11.32-10.27V44.26C1793.4,43.94,1787,45.75,1787.14,53.5Z" fill="#672f80"/>
      </g>
    </g>
  </g>
</svg>
